<svg width="260" height="253" fill="none" xmlns="http://www.w3.org/2000/svg">
  <g id="case-top-from">
    <path id="Vector" d="M167.797 197.846H61.4194C59.1378 197.856 56.9529 198.798 55.3423 200.466C53.7317 202.134 52.8265 204.392 52.8246 206.747V221.889H176.384V206.739C176.382 204.386 175.478 202.129 173.869 200.461C172.26 198.794 170.077 197.851 167.797 197.838" fill="#A67EE5"/>
    <path id="Vector_2" d="M167.797 197.846H61.4194C59.1378 197.856 56.9529 198.798 55.3423 200.466C53.7317 202.134 52.8265 204.392 52.8246 206.747V221.889H176.384V206.739C176.38 204.387 175.475 202.132 173.866 200.466C172.258 198.8 170.076 197.858 167.797 197.846Z" stroke="white" stroke-width="2" stroke-miterlimit="10"/>
    <path id="Vector_3" d="M198.425 197.846H88.5709C86.2542 197.821 84.0222 198.743 82.3619 200.411C80.7015 202.079 79.7477 204.356 79.7086 206.747V221.889H207.257V206.739C207.218 204.349 206.264 202.071 204.604 200.403C202.944 198.736 200.712 197.814 198.395 197.838" fill="#A67EE5"/>
    <path id="Vector_4" d="M198.425 197.846H88.5709C86.2542 197.821 84.0222 198.743 82.3619 200.411C80.7015 202.079 79.7477 204.356 79.7086 206.747V221.889H207.257V206.739C207.216 204.355 206.266 202.084 204.612 200.419C202.958 198.754 200.735 197.829 198.425 197.846V197.846Z" stroke="white" stroke-width="2" stroke-miterlimit="10"/>
    <path id="Vector_5" d="M207.064 214.214C207.849 214.217 208.618 213.98 209.272 213.532C209.926 213.084 210.437 212.446 210.739 211.698C211.042 210.95 211.123 210.126 210.971 209.331C210.82 208.536 210.443 207.805 209.889 207.231C209.335 206.657 208.628 206.265 207.858 206.106C207.088 205.947 206.29 206.027 205.564 206.337C204.839 206.646 204.218 207.171 203.782 207.844C203.345 208.518 203.112 209.31 203.112 210.12C203.11 210.657 203.211 211.189 203.409 211.686C203.606 212.183 203.897 212.634 204.264 213.014C204.631 213.395 205.068 213.697 205.548 213.902C206.029 214.108 206.544 214.214 207.064 214.214Z" fill="#A67EE5"/>
    <path id="Vector_6" d="M207.064 214.214C209.242 214.214 211.009 212.381 211.009 210.12C211.009 207.859 209.242 206.026 207.064 206.026C204.885 206.026 203.119 207.859 203.119 210.12C203.119 212.381 204.885 214.214 207.064 214.214Z" stroke="white" stroke-width="2" stroke-miterlimit="10"/>
    <path id="Vector_7" d="M206.232 206.739V214.214H198.261C197.703 214.213 197.151 214.099 196.636 213.878C196.12 213.656 195.653 213.332 195.259 212.924C194.865 212.517 194.553 212.033 194.34 211.5C194.127 210.968 194.018 210.397 194.019 209.821V197.846H197.645C199.926 197.856 202.11 198.798 203.719 200.467C205.328 202.135 206.232 204.393 206.232 206.747" fill="#A67EE5"/>
    <path id="Vector_8" d="M206.232 206.739V214.214H198.261C197.703 214.213 197.151 214.099 196.636 213.878C196.12 213.656 195.653 213.332 195.259 212.924C194.865 212.517 194.553 212.033 194.34 211.5C194.127 210.968 194.018 210.397 194.019 209.821V197.846H197.645C199.924 197.856 202.107 198.797 203.716 200.464C205.326 202.13 206.23 204.387 206.232 206.739Z" stroke="white" stroke-width="2" stroke-miterlimit="10"/>
    <animate
      id="case_top_disappear"
      attributeType="CSS"
      attributeName="opacity"
      from="1"
      to="0"
      dur="0.01s"
      begin="0.5s"
      calcMode="discrete"
      fill="freeze"
    />
  </g>
  <g id="case-top-to" style="opacity: 0;">
    <path id="Vector" d="M188.634 177.951C189.47 177.951 190.287 177.695 190.982 177.216C191.677 176.736 192.219 176.055 192.539 175.258C192.859 174.461 192.942 173.584 192.779 172.738C192.616 171.891 192.214 171.114 191.623 170.504C191.031 169.894 190.278 169.478 189.458 169.31C188.638 169.142 187.789 169.228 187.016 169.558C186.244 169.889 185.584 170.448 185.119 171.165C184.655 171.882 184.407 172.726 184.407 173.589C184.407 174.746 184.852 175.855 185.645 176.673C186.438 177.491 187.513 177.951 188.634 177.951" fill="#A67EE5"/>
    <path id="Vector_2" d="M188.634 177.951C190.968 177.951 192.861 175.998 192.861 173.589C192.861 171.179 190.968 169.226 188.634 169.226C186.299 169.226 184.407 171.179 184.407 173.589C184.407 175.998 186.299 177.951 188.634 177.951Z" stroke="white" stroke-width="2" stroke-miterlimit="10"/>
    <path id="Vector_3" d="M178.509 161.368H49.9126C47.5612 161.368 45.305 162.327 43.6353 164.035C41.9657 165.744 41.0179 168.065 40.9983 170.491V211.6C40.9983 214.243 42.0157 216.778 43.8268 218.648C45.6379 220.517 48.0942 221.567 50.6554 221.567H187.341V170.491C187.322 168.073 186.38 165.759 184.72 164.052C183.06 162.344 180.815 161.38 178.471 161.368" fill="#A67EE5"/>
    <path id="Vector_4" d="M178.509 161.368H49.9126C47.5612 161.368 45.305 162.327 43.6353 164.035C41.9657 165.744 41.0179 168.065 40.9983 170.491V211.6C40.9983 214.243 42.0157 216.778 43.8268 218.648C45.6379 220.517 48.0942 221.567 50.6554 221.567H187.341V170.491C187.322 168.079 186.385 165.771 184.733 164.065C183.081 162.359 180.846 161.39 178.509 161.368V161.368Z" stroke="white" stroke-width="2" stroke-miterlimit="10"/>
    <path id="Vector_5" d="M52.1782 221.567V172.876C52.1782 169.826 53.3522 166.901 55.4419 164.744C57.5316 162.587 60.3658 161.376 63.3211 161.376H63.6925" stroke="white" stroke-width="2"/>
    <animate
      id="case_top_open"
      attributeType="CSS"
      attributeName="opacity"
      from="0"
      to="1"
      dur="0.01s"
      begin="case_top_disappear.end"
      calcMode="discrete"
      fill="freeze"
    />
  </g>
  <g id="case-bottom">
    <path id="Vector_9" d="M208.215 244.275C209.07 244.368 209.932 244.192 210.687 243.769C211.443 243.346 212.056 242.697 212.446 241.906C212.837 241.116 212.986 240.223 212.874 239.343C212.762 238.464 212.395 237.64 211.82 236.981C211.245 236.322 210.49 235.858 209.654 235.65C208.819 235.443 207.942 235.502 207.14 235.82C206.337 236.137 205.647 236.698 205.16 237.429C204.673 238.16 204.412 239.026 204.412 239.913C204.359 241.011 204.73 242.086 205.442 242.903C206.155 243.721 207.152 244.214 208.215 244.275Z" fill="#A67EE5"/>
    <path id="Vector_10" d="M208.215 244.275C210.316 244.275 212.019 242.322 212.019 239.913C212.019 237.504 210.316 235.551 208.215 235.551C206.115 235.551 204.412 237.504 204.412 239.913C204.412 242.322 206.115 244.275 208.215 244.275Z" stroke="white" stroke-width="2" stroke-miterlimit="10"/>
    <path id="Vector_11" d="M171.021 252.126H61.0777C58.7532 252.147 56.5152 251.217 54.8521 249.541C53.189 247.865 52.2358 245.578 52.2006 243.179V221.567H179.89V243.164C179.857 245.562 178.905 247.849 177.244 249.525C175.582 251.202 173.344 252.131 171.021 252.111" fill="#A67EE5"/>
    <path id="Vector_12" d="M171.021 252.126H61.0777C58.7532 252.147 56.5152 251.217 54.8521 249.541C53.189 247.865 52.2358 245.578 52.2006 243.179V221.567H179.89V243.164C179.861 245.564 178.911 247.855 177.249 249.535C175.586 251.215 173.347 252.146 171.021 252.126V252.126Z" stroke="white" stroke-width="2" stroke-miterlimit="10"/>
    <path id="Vector_13" d="M198.135 252.126H88.9348C86.6183 252.138 84.391 251.204 82.739 249.528C81.0871 247.852 80.1446 245.57 80.1171 243.179V221.567H206.945V243.164C206.922 245.554 205.981 247.838 204.33 249.515C202.679 251.192 200.451 252.125 198.135 252.111" fill="#A67EE5"/>
    <path id="Vector_14" d="M198.135 252.126H88.9348C86.6183 252.138 84.391 251.205 82.739 249.528C81.0871 247.852 80.1446 245.57 80.1171 243.179V221.567H206.945V243.164C206.925 245.557 205.987 247.845 204.335 249.525C202.684 251.205 200.454 252.14 198.135 252.126Z" stroke="white" stroke-width="2" stroke-miterlimit="10"/>
    <path id="Vector_15" d="M159.714 240.787H134.078C133.241 240.803 132.431 240.477 131.826 239.88C131.22 239.282 130.868 238.462 130.847 237.598V228.628C130.849 228.502 130.875 228.378 130.923 228.263C130.972 228.148 131.042 228.044 131.13 227.957C131.217 227.87 131.321 227.802 131.434 227.757C131.548 227.711 131.669 227.689 131.79 227.692H133.93C134.175 227.688 134.411 227.784 134.588 227.959C134.765 228.135 134.867 228.375 134.873 228.628V236.294C134.881 236.562 134.99 236.816 135.178 237.001C135.366 237.186 135.616 237.287 135.876 237.283H157.946C158.206 237.287 158.456 237.186 158.644 237.001C158.832 236.816 158.941 236.562 158.949 236.294V228.628C158.951 228.502 158.977 228.378 159.026 228.263C159.074 228.148 159.144 228.044 159.232 227.957C159.32 227.87 159.423 227.802 159.537 227.757C159.65 227.711 159.771 227.689 159.893 227.692H162.032C162.277 227.688 162.514 227.784 162.69 227.959C162.867 228.135 162.97 228.375 162.975 228.628V237.59C162.954 238.454 162.602 239.275 161.997 239.872C161.391 240.47 160.582 240.796 159.744 240.779" fill="#A67EE5"/>
    <path id="Vector_16" d="M159.714 240.787H134.078C133.241 240.803 132.431 240.477 131.826 239.88C131.22 239.282 130.868 238.462 130.847 237.598V228.628C130.849 228.502 130.875 228.378 130.923 228.263C130.972 228.148 131.042 228.044 131.13 227.957C131.217 227.87 131.321 227.802 131.434 227.757C131.548 227.711 131.669 227.689 131.79 227.692H133.93C134.175 227.688 134.411 227.784 134.588 227.959C134.765 228.135 134.867 228.375 134.873 228.628V236.294C134.881 236.562 134.99 236.816 135.178 237.001C135.366 237.186 135.616 237.287 135.876 237.283H157.946C158.206 237.287 158.456 237.186 158.644 237.001C158.832 236.816 158.941 236.562 158.949 236.294V228.628C158.951 228.502 158.977 228.378 159.026 228.263C159.074 228.148 159.144 228.044 159.232 227.957C159.32 227.87 159.423 227.802 159.537 227.757C159.65 227.711 159.771 227.689 159.893 227.692H162.032C162.277 227.688 162.514 227.784 162.69 227.959C162.867 228.135 162.97 228.375 162.975 228.628V237.59C162.966 238.021 162.874 238.446 162.704 238.841C162.535 239.235 162.292 239.591 161.989 239.888C161.686 240.185 161.329 240.418 160.938 240.572C160.548 240.726 160.132 240.799 159.714 240.787V240.787Z" stroke="white" stroke-width="2" stroke-miterlimit="10"/>
    <path id="Vector_17" d="M109.705 216.346H102.945V225.944H109.705V216.346Z" fill="#A67EE5"/>
    <path id="Vector_18" d="M109.705 216.346H102.945V225.944H109.705V216.346Z" stroke="white" stroke-width="2" stroke-miterlimit="10"/>
    <path id="Vector_19" d="M190.877 216.346H184.117V225.944H190.877V216.346Z" fill="#A67EE5"/>
    <path id="Vector_20" d="M190.877 216.346H184.117V225.944H190.877V216.346Z" stroke="white" stroke-width="2" stroke-miterlimit="10"/>
    <path id="Vector_21" d="M206.945 243.118V235.551H199.219C198.104 235.579 197.044 236.063 196.274 236.897C195.504 237.73 195.086 238.846 195.111 239.997V252.126H198.625C203.201 252.126 206.945 248.07 206.945 243.118" fill="#A67EE5"/>
    <path id="Vector_22" d="M206.945 243.118V235.551H199.219C198.104 235.579 197.044 236.063 196.274 236.897C195.504 237.73 195.086 238.846 195.111 239.997V252.126H198.625C203.201 252.126 206.945 248.078 206.945 243.118Z" stroke="white" stroke-width="2" stroke-miterlimit="10"/>
    <path id="Vector_23" d="M74.2857 231.181H58.8491C58.6521 231.181 58.4632 231.1 58.3238 230.956C58.1845 230.812 58.1063 230.617 58.1063 230.414V228.467C58.1063 228.263 58.1845 228.068 58.3238 227.925C58.4632 227.781 58.6521 227.7 58.8491 227.7H74.2857C74.4827 227.7 74.6717 227.781 74.811 227.925C74.9503 228.068 75.0285 228.263 75.0285 228.467V230.445C75.0285 230.648 74.9503 230.843 74.811 230.987C74.6717 231.131 74.4827 231.211 74.2857 231.211" fill="#A67EE5"/>
    <path id="Vector_24" d="M74.2857 231.181H58.8491C58.6521 231.181 58.4632 231.1 58.3238 230.956C58.1845 230.812 58.1063 230.617 58.1063 230.414V228.467C58.1063 228.263 58.1845 228.068 58.3238 227.925C58.4632 227.781 58.6521 227.7 58.8491 227.7H74.2857C74.4827 227.7 74.6717 227.781 74.811 227.925C74.9503 228.068 75.0285 228.263 75.0285 228.467V230.445C75.0209 230.643 74.9392 230.83 74.8007 230.967C74.6622 231.104 74.4777 231.181 74.2857 231.181Z" stroke="white" stroke-width="2" stroke-miterlimit="10"/>
  </g>
  <g id="case-content" style="opacity: 0;">
    <animate
      id="case_content_show"
      attributeType="CSS"
      attributeName="opacity"
      from="0"
      to="1"
      dur="0.01s"
      begin="case_top_open.end"
      calcMode="discrete"
      fill="freeze"
    />
    <g id="plants" style="transform-origin: center bottom; transform-box: fill-box;">
      <g id="flower">
        <path id="Vector_6" d="M134.257 212.98C134.257 212.98 140.422 155.794 163.755 143.98" stroke="white" stroke-width="2" stroke-linecap="round" stroke-linejoin="round"/>
        <path id="Vector_7" d="M161.906 143.459L168.792 124.683C171.084 124.969 173.292 125.753 175.27 126.983C176.493 126.125 177.986 125.778 179.447 126.011C180.909 126.244 182.231 127.04 183.146 128.238C184.062 129.437 184.503 130.949 184.382 132.47C184.26 133.992 183.584 135.409 182.49 136.436C183.179 138.71 183.397 141.108 183.129 143.474L163.815 146.004C163.504 146.044 163.188 146.001 162.898 145.879C162.609 145.756 162.354 145.559 162.16 145.305C161.966 145.051 161.838 144.75 161.79 144.431C161.741 144.111 161.774 143.784 161.883 143.482" fill="#3B7BF2"/>
        <path id="Vector_8" d="M132.407 220.516C132.407 220.516 137.525 186.262 160.598 177.177" stroke="white" stroke-width="2" stroke-linecap="round" stroke-linejoin="round"/>
        <path id="Vector_9" d="M156.631 177.867L163.317 165.24C164.968 165.658 166.519 166.422 167.871 167.486C168.795 167.025 169.846 166.911 170.842 167.164C171.386 167.291 171.9 167.529 172.354 167.862C172.808 168.196 173.193 168.619 173.487 169.108C173.782 169.596 173.979 170.14 174.068 170.708C174.158 171.276 174.137 171.856 174.007 172.416C173.755 173.429 173.149 174.311 172.306 174.892C172.614 176.565 172.561 178.287 172.15 179.937L157.783 179.852C157.555 179.858 157.33 179.802 157.129 179.69C156.929 179.578 156.76 179.414 156.64 179.215C156.52 179.015 156.452 178.786 156.444 178.551C156.436 178.316 156.488 178.082 156.594 177.874" fill="#3B7BF2"/>
      </g>
      <g id="leave-left">
        <path id="Vector_37" d="M105.315 156.523C123.218 181.401 131.917 220.923 131.917 220.923" stroke="#3B7BF2" stroke-width="2" stroke-linecap="round" stroke-linejoin="round"/>
        <path id="Vector_38" d="M93.3994 150.435C98.2577 156.193 106.147 157.335 106.147 157.335C106.147 157.335 106.147 149.117 101.296 143.367C96.4451 137.617 88.5411 136.467 88.5411 136.467C88.5411 136.467 88.5411 144.685 93.3994 150.435" fill="#76ABFF"/>
        <path id="Vector_39" d="M113.783 158.347C111.785 165.692 115.202 173.121 115.202 173.121C115.202 173.121 121.888 168.628 123.871 161.276C125.855 153.924 122.453 146.502 122.453 146.502C122.453 146.502 115.767 150.995 113.783 158.347Z" fill="#3B7BF2"/>
        <path id="Vector_40" d="M100.895 174.578C108.019 176.648 115.202 173.113 115.202 173.113C115.202 173.113 110.849 166.213 103.725 164.166C96.6012 162.119 89.4177 165.6 89.4177 165.6C89.4177 165.6 93.7783 172.5 100.895 174.547" fill="#3B7BF2"/>
        <path id="Vector_41" d="M123.389 178.265C120.855 185.441 123.738 193.1 123.738 193.1C123.738 193.1 130.713 189.129 133.239 181.961C135.765 174.792 132.89 167.133 132.89 167.133C132.89 167.133 125.914 171.105 123.389 178.273" fill="#1553B7"/>
        <path id="Vector_42" d="M109.363 193.468C116.317 196.075 123.738 193.108 123.738 193.108C123.738 193.108 119.89 185.909 112.937 183.302C105.983 180.696 98.5623 183.663 98.5623 183.663C98.5623 183.663 102.41 190.862 109.363 193.468Z" fill="#1553B7"/>
      </g>
      <g id="leave-right">
        <path id="Vector_43" d="M136.53 202.99C138.238 209.967 134.843 216.882 134.843 216.882C134.843 216.882 128.663 212.482 126.947 205.497C125.231 198.513 128.633 191.605 128.633 191.605C128.633 191.605 134.814 196.014 136.53 202.99Z" fill="#3B7BF2"/>
        <path id="Vector_44" d="M148.297 218.623C141.529 220.394 134.836 216.882 134.836 216.882C134.836 216.882 139.1 210.504 145.867 208.733C152.635 206.962 159.328 210.473 159.328 210.473C159.328 210.473 155.057 216.852 148.297 218.623Z" fill="#3B7BF2"/>
        <path id="Vector_45" d="M140.073 208.28C137.244 212.341 134.685 216.596 132.414 221.015" stroke="#3B7BF2" stroke-width="2" stroke-linecap="round" stroke-linejoin="round"/>
        <path id="Vector_46" d="M151.313 202.546C146.729 207.974 139.286 209.016 139.286 209.016C139.286 209.016 139.286 201.265 143.862 195.845C148.438 190.425 155.889 189.367 155.889 189.367C155.889 189.367 155.889 197.118 151.313 202.546Z" fill="#76ABFF"/>
      </g>

      <animateTransform
        id="plants_appear"
        begin="case_content_show.end"
        attributeName="transform"
        type="rotate"
        values="60; -10; 0"
        dur="2s"
        keyTimes="0; 0.5; 1"
        keySplines="0.35, 0.06, 0.44, 0.91; 0.35, 0.06, 0.44, 0.91"
        calcMode="spline"
        additive="sum"
      />
      <animateTransform
        begin="plants_appear.end"
        attributeName="transform"
        type="skewX"
        values="0; -7; 5; -3; 1.5; 0;"
        dur="7s"
        keyTimes="0; 0.2; 0.4; 0.6; 0.8; 1"
        keySplines="0.35, 0.06, 0.44, 0.91; 0.35, 0.06, 0.44, 0.91; 0.35, 0.06, 0.44, 0.91; 0.35, 0.06, 0.44, 0.91; 0.35, 0.06, 0.44, 0.91"
        calcMode="spline"
        additive="sum"
      />
    </g>

    <g id="rope-baloon" style="transform-origin: bottom; transform-box: fill-box;">
      <path id="Vector_18" d="M 79.969 127.811 L 79.969 127.811" stroke="white" stroke-width="2" stroke-miterlimit="10" stroke-linecap="round">
        <animate
          id="rope_straighten"
          attributeName="d"
          from="M 79.969 221.582 L 79.969 221.582"
          to="M 79.969 221.582 L 79.969 127.811"
          dur="0.7s"
          calcMode="linear"
          begin="case_content_show.end"
          fill="freeze"
        />
      </path>
      <animateTransform
        begin="rope_straighten.end - 0.1s"
        attributeName="transform"
        type="skewX"
        values="0; 7; -5; 3; -1.5; 0;"
        dur="2.3s"
        keyTimes="0; 0.2; 0.4; 0.6; 0.8; 1"
        keySplines="0.35, 0.06, 0.44, 0.91; 0.35, 0.06, 0.44, 0.91; 0.35, 0.06, 0.44, 0.91; 0.35, 0.06, 0.44, 0.91; 0.35, 0.06, 0.44, 0.91"
        calcMode="spline"
        fill="freeze"
        additive="sum"
      />
      <g id="baloon" style="transform-origin: center bottom; transform-box: fill-box;">
        <path id="Vector_10" d="M79.1737 124.1L77.5468 127.006C77.461 127.163 77.4165 127.34 77.4178 127.519C77.419 127.699 77.466 127.876 77.5539 128.031C77.6419 128.186 77.7679 128.315 77.9191 128.404C78.0704 128.493 78.2417 128.54 78.416 128.539H81.6623C81.8359 128.539 82.0063 128.491 82.1565 128.401C82.3068 128.311 82.4317 128.182 82.5188 128.027C82.6059 127.872 82.6522 127.697 82.6531 127.517C82.654 127.338 82.6095 127.162 82.524 127.006L80.9046 124.1C80.8161 123.944 80.6897 123.815 80.5379 123.725C80.3861 123.636 80.2141 123.588 80.0391 123.588C79.8641 123.588 79.6922 123.636 79.5403 123.725C79.3885 123.815 79.2621 123.944 79.1737 124.1Z" fill="white"/>
        <path id="Vector_11" d="M80.0354 60.8887C86.5154 60.8907 92.7296 63.5477 97.3123 68.2759C101.895 73.0041 104.471 79.4166 104.475 86.1043C104.475 100.035 93.2657 123.587 79.7754 123.587C66.2851 123.587 55.5954 100.027 55.5954 86.1043C55.5994 79.4166 58.1758 73.0041 62.7585 68.2759C67.3413 63.5477 73.5554 60.8907 80.0354 60.8887V60.8887ZM80.0354 59.6543C73.2407 59.6624 66.7266 62.4517 61.922 67.4103C57.1174 72.3689 54.4147 79.0918 54.4069 86.1043C54.4069 93.3953 57.2297 103.048 61.5977 110.691C66.7977 119.799 73.2457 124.813 79.768 124.813C86.2903 124.813 92.8423 119.799 98.1983 110.707C102.73 103.04 105.664 93.3493 105.664 86.1043C105.656 79.0918 102.953 72.3689 98.1489 67.4103C93.3443 62.4517 86.8301 59.6624 80.0354 59.6543" fill="white"/>
        <path id="Vector_12" d="M71.3589 86.1657C71.3589 72.243 75.244 60.95 80.0355 60.95C73.5555 60.952 67.3413 63.6091 62.7586 68.3373C58.1758 73.0655 55.5994 79.478 55.5955 86.1657C55.5955 100.096 66.2777 123.648 79.7755 123.648H79.9018C75.1252 123.502 71.3589 100.058 71.3589 86.1657Z" fill="#76ABFF"/>
        <path id="Vector_13" d="M104.475 86.1657C104.471 79.478 101.895 73.0655 97.3123 68.3373C92.7295 63.6091 86.5154 60.952 80.0354 60.95C84.8268 60.95 88.712 72.243 88.712 86.1657C88.712 100.088 84.7823 123.334 80.0354 123.633C93.4068 123.334 104.475 100.004 104.475 86.1657" fill="#1553B7"/>
        <path id="Vector_14" d="M88.712 86.1657C88.712 72.243 84.8269 60.95 80.0355 60.95C75.244 60.95 71.3589 72.243 71.3589 86.1657C71.3589 100.088 75.1252 123.495 79.9017 123.648H80.0355C84.7823 123.341 88.712 100.012 88.712 86.1733" fill="#3B7BF2"/>
        <path id="Vector_15" d="M74.6869 80.776C73.8495 80.776 73.0308 81.0323 72.3345 81.5125C71.6382 81.9926 71.0954 82.6752 70.775 83.4737C70.4545 84.2722 70.3706 85.1508 70.534 85.9985C70.6974 86.8462 71.1007 87.6249 71.6928 88.236C72.285 88.8472 73.0395 89.2634 73.8609 89.432C74.6822 89.6006 75.5336 89.5141 76.3073 89.1833C77.081 88.8526 77.7423 88.2925 78.2076 87.5738C78.6729 86.8552 78.9212 86.0103 78.9212 85.146C78.9547 84.5631 78.8682 83.9794 78.6673 83.4336C78.4663 82.8877 78.1556 82.392 77.7555 81.9791C77.3554 81.5661 76.8751 81.2454 76.3462 81.0381C75.8172 80.8307 75.2517 80.7414 74.6869 80.776V80.776ZM74.6869 86.9093C73.3052 86.9093 72.4138 86.1963 72.4138 85.1537C72.4138 84.111 73.3126 83.398 74.6869 83.398C76.0612 83.398 76.9675 84.111 76.9675 85.1537C76.9675 86.1963 76.0389 86.9093 74.6869 86.9093Z" fill="white"/>
        <path id="Vector_16" d="M85.2355 80.776C85.4774 80.7758 85.7147 80.8441 85.9216 80.9735C86.1285 81.1029 86.297 81.2883 86.4089 81.5097C86.5207 81.7311 86.5716 81.9799 86.5559 82.229C86.5402 82.4781 86.4587 82.7181 86.32 82.9227L76.4178 97.75C76.2044 98.0043 75.908 98.1688 75.5848 98.2124C75.2616 98.2559 74.9342 98.1755 74.6647 97.9863C74.3952 97.7971 74.2024 97.5123 74.123 97.1861C74.0435 96.8599 74.083 96.5149 74.2338 96.2167L84.1435 81.3893C84.2649 81.2063 84.4279 81.0568 84.6183 80.9539C84.8087 80.851 85.0206 80.7978 85.2355 80.799" fill="white"/>
        <path id="Vector_17" d="M86.3274 89.608C85.49 89.608 84.6713 89.8643 83.975 90.3445C83.2787 90.8246 82.7359 91.5072 82.4155 92.3057C82.095 93.1042 82.0111 93.9828 82.1745 94.8305C82.3379 95.6782 82.7412 96.4569 83.3333 97.0681C83.9255 97.6792 84.68 98.0954 85.5014 98.264C86.3227 98.4326 87.1741 98.3461 87.9478 98.0153C88.7215 97.6846 89.3828 97.1245 89.8481 96.4058C90.3134 95.6872 90.5617 94.8423 90.5617 93.978C90.5941 93.3954 90.5067 92.8123 90.3053 92.267C90.104 91.7217 89.7932 91.2264 89.3934 90.8138C88.9935 90.4011 88.5137 90.0804 87.9853 89.8726C87.4569 89.6648 86.8919 89.5746 86.3274 89.608ZM86.3274 95.7413C84.9457 95.7413 84.0543 95.0283 84.0543 93.9857C84.0543 92.943 84.9531 92.23 86.3274 92.23C87.7017 92.23 88.608 92.92 88.608 93.9857C88.608 95.0513 87.7091 95.7413 86.3274 95.7413Z" fill="white"/>
        <animateTransform
          begin="case_content_show.end"
          dur="3s"
          values="45; -10; 8; -6; 4; -2; 0"
          keyTimes="0; 0.3; 0.45; 0.6; 0.75; 0.85; 1"
          keySplines="0.33, 0, 0.67, 1; 0.33, 0, 0.67, 1; 0.33, 0, 0.67, 1; 0.33, 0, 0.67, 1; 0.33, 0, 0.67, 1; 0.17, 0, 0.83, 1"
          fill="freeze"
          additive="sum"
          calcMode="spline"
          type="rotate"
          attributeName="transform"
        />
        <animateMotion
          begin="case_content_show.end"
          dur="3s"
          values="0, 100; 0, -1; 0, 0; -1, -1; 0, 5; 0, -1; 0"
          keyTimes="0; 0.3; 0.45; 0.6; 0.75; 0.85; 1"
          keySplines="0.33, 0, 0.67, 1; 0.33, 0, 0.67, 1; 0.33, 0, 0.67, 1; 0.33, 0, 0.67, 1; 0.33, 0, 0.67, 1; 0.17, 0, 0.83, 1"
          fill="freeze"
          additive="sum"
          calcMode="spline"
        />
      </g>
    </g>

    <g id="bird" style="transform-origin: center center; transform-box: fill-box;">
      <path style="transform-origin: left center; transform-box: fill-box;" id="wings" d="M207.406 140.913C207.4 140.06 207.677 139.23 208.19 138.561C208.703 137.892 209.422 137.424 210.229 137.233V137.233L225.881 133.093C220.101 144.471 211.633 144.647 211.023 144.647C210.064 144.637 209.148 144.237 208.474 143.533C207.799 142.83 207.421 141.88 207.421 140.89" fill="white">
        <animateTransform
          id="wings_fly"
          begin="bird_appear.begin"
          dur="0.15s"
          repeatCount="indefinite"
          values="1, 1; -1, 1"
          keyTimes="0; 1"
          keySplines="0.33, 0, 0.67, 1"
          fill="freeze"
          additive="sum"
          calcMode="spline"
          type="scale"
          attributeName="transform"
        />
      </path>
      <path id="Vector_36" d="M194.807 130.226H202.8C203.063 129.556 203.518 128.985 204.103 128.588C204.688 128.191 205.376 127.987 206.076 128.003C206.584 127.974 207.09 128.084 207.543 128.321C207.997 128.558 208.382 128.913 208.661 129.352C209.07 129.973 209.411 130.639 209.679 131.338C210.147 132.541 212.65 143.451 214.054 146.027C214.871 147.56 217.315 151.516 217.315 151.516C217.466 151.784 217.545 152.088 217.546 152.398V159.467C217.546 159.467 215.235 158.639 215.235 156.469V151.463C213.817 151.67 210.778 150.198 209.047 149.255C206.901 148.197 205.215 146.348 204.323 144.072C203.423 141.829 203.394 139.314 204.241 137.049C204.589 136.357 204.789 135.597 204.828 134.818C204.783 133.944 203.795 132.733 203.209 131.713L194.807 130.226Z" fill="white"/>
      <animateMotion
        id="bird_appear"
        begin="case_content_show.end"
        dur="1s"
        values="-50, 100; 10, 0"
        keyTimes="0; 1"
        keySplines="0.33, 0, 0.67, 1"
        fill="freeze"
        additive="sum"
        calcMode="spline"
      />
      <animateMotion
        id="repeated_flight"
        begin="bird_appear.end"
        dur="6s"
        repeatCount="indefinite"
        values="0; 7, -7; -7, 7; 0"
        keyTimes="0; 0.3; 0.6; 1"
        keySplines="0.33, 0, 0.67, 1; 0.17, 0, 0.83, 1; 0.33, 0, 0.67, 1"
        fill="freeze"
        additive="sum"
        calcMode="spline"
      />
      <animateTransform
        begin="repeated_flight.begin"
        dur="6s"
        repeatCount="indefinite"
        values="0; 10; -10; 0"
        keyTimes="0; 0.3; 0.6; 1"
        keySplines="0.33, 0, 0.67, 1; 0.17, 0, 0.83, 1; 0.33, 0, 0.67, 1"
        fill="freeze"
        additive="sum"
        calcMode="spline"
        type="rotate"
        attributeName="transform"
      />
    </g>

  </g>
  <g id="case-bottom">
    <path id="Vector_19" d="M208.215 244.275C209.07 244.368 209.932 244.192 210.687 243.769C211.443 243.346 212.056 242.697 212.447 241.906C212.837 241.116 212.986 240.223 212.874 239.343C212.762 238.464 212.395 237.64 211.82 236.981C211.245 236.322 210.49 235.858 209.654 235.65C208.819 235.443 207.942 235.502 207.14 235.82C206.337 236.137 205.647 236.698 205.16 237.429C204.673 238.16 204.412 239.026 204.412 239.913C204.359 241.011 204.73 242.086 205.442 242.903C206.155 243.721 207.152 244.214 208.215 244.275Z" fill="#A67EE5"/>
    <path id="Vector_20" d="M208.215 244.275C210.316 244.275 212.019 242.322 212.019 239.913C212.019 237.504 210.316 235.551 208.215 235.551C206.115 235.551 204.412 237.504 204.412 239.913C204.412 242.322 206.115 244.275 208.215 244.275Z" stroke="white" stroke-width="2" stroke-miterlimit="10"/>
    <path id="Vector_21" d="M171.021 252.126H61.0777C58.7532 252.146 56.5152 251.217 54.8521 249.541C53.189 247.865 52.2358 245.578 52.2006 243.179V221.567H179.89V243.164C179.857 245.562 178.905 247.849 177.244 249.525C175.582 251.202 173.344 252.131 171.021 252.111" fill="#A67EE5"/>
    <path id="Vector_22" d="M171.021 252.126H61.0777C58.7532 252.146 56.5152 251.217 54.8521 249.541C53.189 247.865 52.2358 245.578 52.2006 243.179V221.567H179.89V243.164C179.861 245.564 178.911 247.855 177.249 249.535C175.586 251.215 173.347 252.146 171.021 252.126V252.126Z" stroke="white" stroke-width="2" stroke-miterlimit="10"/>
    <path id="Vector_23" d="M198.135 252.126H88.9349C86.6183 252.138 84.391 251.204 82.7391 249.528C81.0871 247.852 80.1446 245.57 80.1172 243.179V221.567H206.945V243.164C206.922 245.554 205.981 247.838 204.33 249.515C202.679 251.192 200.451 252.125 198.135 252.111" fill="#A67EE5"/>
    <path id="Vector_24" d="M198.135 252.126H88.9349C86.6183 252.138 84.391 251.204 82.7391 249.528C81.0871 247.852 80.1446 245.57 80.1172 243.179V221.567H206.945V243.164C206.926 245.557 205.987 247.845 204.335 249.525C202.684 251.205 200.454 252.14 198.135 252.126Z" stroke="white" stroke-width="2" stroke-miterlimit="10"/>
    <path id="Vector_25" d="M159.714 240.787H134.078C133.241 240.803 132.431 240.477 131.826 239.88C131.22 239.282 130.868 238.462 130.847 237.598V228.628C130.849 228.502 130.875 228.378 130.923 228.263C130.972 228.148 131.042 228.044 131.13 227.957C131.218 227.87 131.321 227.802 131.434 227.757C131.548 227.711 131.669 227.689 131.79 227.692H133.93C134.175 227.688 134.411 227.784 134.588 227.959C134.765 228.135 134.867 228.375 134.873 228.628V236.294C134.881 236.562 134.991 236.816 135.178 237.001C135.366 237.186 135.617 237.287 135.876 237.283H157.946C158.206 237.287 158.457 237.186 158.644 237.001C158.832 236.816 158.941 236.562 158.949 236.294V228.628C158.951 228.502 158.977 228.378 159.026 228.263C159.074 228.148 159.144 228.044 159.232 227.957C159.32 227.87 159.423 227.802 159.537 227.757C159.65 227.711 159.771 227.689 159.893 227.692H162.032C162.277 227.688 162.514 227.784 162.69 227.959C162.867 228.135 162.97 228.375 162.975 228.628V237.59C162.954 238.454 162.602 239.275 161.997 239.872C161.391 240.47 160.582 240.796 159.744 240.779" fill="#A67EE5"/>
    <path id="Vector_26" d="M159.714 240.787H134.078C133.241 240.803 132.431 240.477 131.826 239.88C131.22 239.282 130.868 238.462 130.847 237.598V228.628C130.849 228.502 130.875 228.378 130.923 228.263C130.972 228.148 131.042 228.044 131.13 227.957C131.218 227.87 131.321 227.802 131.434 227.757C131.548 227.711 131.669 227.689 131.79 227.692H133.93C134.175 227.688 134.411 227.784 134.588 227.959C134.765 228.135 134.867 228.375 134.873 228.628V236.294C134.881 236.562 134.991 236.816 135.178 237.001C135.366 237.186 135.617 237.287 135.876 237.283H157.946C158.206 237.287 158.457 237.186 158.644 237.001C158.832 236.816 158.941 236.562 158.949 236.294V228.628C158.951 228.502 158.977 228.378 159.026 228.263C159.074 228.148 159.144 228.044 159.232 227.957C159.32 227.87 159.423 227.802 159.537 227.757C159.65 227.711 159.771 227.689 159.893 227.692H162.032C162.277 227.688 162.514 227.784 162.69 227.959C162.867 228.135 162.97 228.375 162.975 228.628V237.59C162.966 238.021 162.874 238.446 162.704 238.841C162.535 239.235 162.292 239.591 161.989 239.888C161.686 240.185 161.329 240.418 160.939 240.572C160.548 240.726 160.132 240.799 159.714 240.787V240.787Z" stroke="white" stroke-width="2" stroke-miterlimit="10"/>
    <path id="Vector_27" d="M109.705 216.346H102.945V225.944H109.705V216.346Z" fill="#A67EE5"/>
    <path id="Vector_28" d="M109.705 216.346H102.945V225.944H109.705V216.346Z" stroke="white" stroke-width="2" stroke-miterlimit="10"/>
    <path id="Vector_29" d="M190.877 216.346H184.117V225.944H190.877V216.346Z" fill="#A67EE5"/>
    <path id="Vector_30" d="M190.877 216.346H184.117V225.944H190.877V216.346Z" stroke="white" stroke-width="2" stroke-miterlimit="10"/>
    <path id="Vector_31" d="M206.945 243.118V235.551H199.219C198.104 235.579 197.044 236.063 196.274 236.897C195.504 237.73 195.086 238.846 195.111 239.997V252.126H198.625C203.201 252.126 206.945 248.07 206.945 243.118" fill="#A67EE5"/>
    <path id="Vector_32" d="M206.945 243.118V235.551H199.219C198.104 235.579 197.044 236.063 196.274 236.897C195.504 237.73 195.086 238.846 195.111 239.997V252.126H198.625C203.201 252.126 206.945 248.078 206.945 243.118Z" stroke="white" stroke-width="2" stroke-miterlimit="10"/>
    <path id="Vector_33" d="M74.2857 231.181H58.8492C58.6522 231.181 58.4632 231.1 58.3239 230.956C58.1846 230.812 58.1063 230.617 58.1063 230.414V228.467C58.1063 228.263 58.1846 228.068 58.3239 227.925C58.4632 227.781 58.6522 227.7 58.8492 227.7H74.2857C74.4828 227.7 74.6717 227.781 74.811 227.925C74.9503 228.068 75.0286 228.263 75.0286 228.467V230.445C75.0286 230.648 74.9503 230.843 74.811 230.987C74.6717 231.131 74.4828 231.211 74.2857 231.211" fill="#A67EE5"/>
    <path id="Vector_34" d="M74.2857 231.181H58.8492C58.6522 231.181 58.4632 231.1 58.3239 230.956C58.1846 230.812 58.1063 230.617 58.1063 230.414V228.467C58.1063 228.263 58.1846 228.068 58.3239 227.925C58.4632 227.781 58.6522 227.7 58.8492 227.7H74.2857C74.4828 227.7 74.6717 227.781 74.811 227.925C74.9503 228.068 75.0286 228.263 75.0286 228.467V230.445C75.0209 230.643 74.9393 230.83 74.8008 230.967C74.6623 231.104 74.4777 231.181 74.2857 231.181Z" stroke="white" stroke-width="2" stroke-miterlimit="10"/>
  </g>
  <g id="ground">
    <path id="Vector_25" d="M34.3497 252.233H225.65" stroke="white" stroke-width="2" stroke-linecap="round" stroke-linejoin="round"/>
  </g>
</svg>
