<svg width="350" height="330" viewBox="0 0 350 330" fill="none" xmlns="http://www.w3.org/2000/svg">
  <g id="scene">
    <g id="leave_big" style="transform-origin: left bottom;">
      <path id="Vector_7" d="M263.47 206.82C263.795 206.58 264.184 206.444 264.588 206.43C264.991 206.415 265.39 206.524 265.731 206.74C266.072 206.956 266.339 207.271 266.498 207.642C266.656 208.013 266.699 208.424 266.62 208.82C265.62 215.82 264.55 229.15 271.47 228.22C276.41 227.56 254.82 196.69 290.79 190.06C291.162 189.982 291.548 190.011 291.903 190.145C292.259 190.278 292.569 190.51 292.797 190.813C293.026 191.116 293.164 191.478 293.194 191.856C293.225 192.235 293.147 192.614 292.97 192.95C291.65 195.69 290.14 199.56 290.24 202.85C290.248 203.283 290.396 203.702 290.663 204.044C290.93 204.386 291.301 204.632 291.719 204.744C292.138 204.857 292.582 204.831 292.984 204.67C293.386 204.508 293.725 204.221 293.95 203.85C298.05 197.7 309.05 185.99 330.54 193.15C330.883 193.261 331.189 193.463 331.427 193.734C331.665 194.005 331.825 194.335 331.89 194.69C332.82 199.49 336.02 217.93 331.6 223.41C326.51 229.72 316.6 227.55 315.42 233.66C314.12 240.57 322.93 238.48 328.84 233.44C329.138 233.177 329.507 233.008 329.9 232.956C330.294 232.903 330.695 232.969 331.051 233.145C331.407 233.321 331.703 233.599 331.9 233.943C332.098 234.288 332.188 234.684 332.16 235.08C331.91 240.53 329.98 249.08 321.04 253.77C307.26 260.98 297.56 246.77 295.85 249.89C293.26 254.55 303.79 258.36 309.63 260.07C310.001 260.168 310.336 260.371 310.595 260.654C310.855 260.938 311.026 261.29 311.091 261.669C311.155 262.047 311.109 262.436 310.958 262.789C310.807 263.143 310.558 263.445 310.24 263.66C299.72 271.4 281.11 273.94 273.24 258.25C264.94 241.66 260.31 245.76 255.05 237.87C249.34 229.3 250.72 215.33 263.43 206.82H263.47ZM292.83 239.29C293.33 242.02 298.03 242.8 301.18 242.23C304.33 241.66 309.65 238.4 309.18 235.67C308.71 232.94 302.56 231.77 299.4 232.34C296.24 232.91 292.35 236.56 292.85 239.29" fill="#E81A5A"/>
      <path id="Vector_8" d="M263 327.88C263 327.88 258.09 257.61 268.54 247.16" stroke="#E81A5A" stroke-width="2" stroke-miterlimit="10"/>
      <animateTransform
        attributeName="transform"
        type="skewX"
        values="0; -7; 5; -3; 1.5; 0;"
        dur="4s"
        keyTimes="0; 0.2; 0.4; 0.6; 0.8; 1"
        keySplines="0.35, 0.06, 0.44, 0.91; 0.35, 0.06, 0.44, 0.91; 0.35, 0.06, 0.44, 0.91; 0.35, 0.06, 0.44, 0.91; 0.35, 0.06, 0.44, 0.91"
        calcMode="spline"
        repeatCount="indefinite"
        additive="sum"
      />
    </g>
    <g id="flying_prize" style="opacity: 0;">
      <g id="suitcase" transform="translate(-65, -190)" style="transform-origin: center; transform-box: fill-box;">
        <path id="Vector_9" d="M93.67 247.14C94.6054 247.137 95.5017 246.765 96.1632 246.103C96.8246 245.442 97.1974 244.545 97.2 243.61V238.54C97.2 237.604 96.8281 236.706 96.1661 236.044C95.5041 235.382 94.6062 235.01 93.67 235.01C92.7338 235.01 91.8359 235.382 91.1739 236.044C90.5119 236.706 90.14 237.604 90.14 238.54V243.61C90.1453 244.545 90.5188 245.439 91.1797 246.1C91.8406 246.761 92.7354 247.135 93.67 247.14" fill="#A67EE5"/>
        <path id="Vector_10" d="M93.67 247.14C94.6054 247.137 95.5017 246.765 96.1632 246.103C96.8246 245.442 97.1974 244.545 97.2 243.61V238.54C97.2 237.604 96.8281 236.706 96.1661 236.044C95.5041 235.382 94.6062 235.01 93.67 235.01C92.7338 235.01 91.8359 235.382 91.1739 236.044C90.5119 236.706 90.14 237.604 90.14 238.54V243.61C90.1453 244.545 90.5188 245.439 91.1797 246.1C91.8406 246.761 92.7354 247.135 93.67 247.14V247.14Z" stroke="white" stroke-width="2" stroke-miterlimit="10"/>
        <path id="Vector_11" d="M18.13 247.14C19.0654 247.137 19.9617 246.765 20.6232 246.103C21.2846 245.442 21.6574 244.545 21.66 243.61V238.54C21.66 237.604 21.2881 236.706 20.6261 236.044C19.9641 235.382 19.0662 235.01 18.13 235.01C17.1938 235.01 16.2959 235.382 15.6339 236.044C14.9719 236.706 14.6 237.604 14.6 238.54V243.61C14.6026 244.545 14.9754 245.442 15.6368 246.103C16.2983 246.765 17.1946 247.137 18.13 247.14" fill="#A67EE5"/>
        <path id="Vector_12" d="M18.13 247.14C19.0654 247.137 19.9617 246.765 20.6232 246.103C21.2846 245.442 21.6574 244.545 21.66 243.61V238.54C21.66 237.604 21.2881 236.706 20.6261 236.044C19.9641 235.382 19.0662 235.01 18.13 235.01C17.1938 235.01 16.2959 235.382 15.6339 236.044C14.9719 236.706 14.6 237.604 14.6 238.54V243.61C14.6026 244.545 14.9754 245.442 15.6368 246.103C16.2983 246.765 17.1946 247.137 18.13 247.14V247.14Z" stroke="white" stroke-width="2" stroke-miterlimit="10"/>
        <path id="Vector_13" d="M12.7 238.55H87.2C90.2078 238.542 93.0901 237.344 95.2169 235.217C97.3437 233.09 98.5421 230.208 98.55 227.2V161.12C98.5421 158.112 97.3437 155.23 95.2169 153.103C93.0901 150.976 90.2078 149.778 87.2 149.77H12.7C9.69222 149.778 6.80991 150.976 4.68309 153.103C2.55627 155.23 1.35792 158.112 1.35001 161.12V227.2C1.35792 230.208 2.55627 233.09 4.68309 235.217C6.80991 237.344 9.69222 238.542 12.7 238.55" fill="#A67EE5"/>
        <path id="Vector_14" d="M87.2 149.77H12.7C6.43156 149.77 1.35001 154.852 1.35001 161.12V227.2C1.35001 233.468 6.43156 238.55 12.7 238.55H87.2C93.4684 238.55 98.55 233.468 98.55 227.2V161.12C98.55 154.852 93.4684 149.77 87.2 149.77Z" stroke="white" stroke-width="2" stroke-miterlimit="10"/>
        <path id="Vector_15" d="M41.04 137.41H73.44C74.5213 137.413 75.5575 137.843 76.3221 138.608C77.0867 139.373 77.5174 140.409 77.52 141.49V157.49C77.52 157.806 77.3946 158.108 77.1715 158.331C76.9483 158.555 76.6456 158.68 76.33 158.68H73.63C73.3144 158.68 73.0117 158.555 72.7885 158.331C72.5654 158.108 72.44 157.806 72.44 157.49V143.12C72.44 142.783 72.3062 142.46 72.068 142.222C71.8299 141.984 71.5068 141.85 71.17 141.85H43.31C42.9732 141.85 42.6501 141.984 42.412 142.222C42.1738 142.46 42.04 142.783 42.04 143.12V157.5C42.04 157.816 41.9146 158.118 41.6915 158.341C41.4683 158.565 41.1656 158.69 40.85 158.69H38.15C37.8344 158.69 37.5317 158.565 37.3085 158.341C37.0854 158.118 36.96 157.816 36.96 157.5V141.5C36.9653 140.418 37.3982 139.382 38.1644 138.617C38.9305 137.853 39.9678 137.423 41.05 137.42" fill="#A67EE5"/>
        <path id="Vector_16" d="M41.04 137.41H73.44C74.5213 137.413 75.5575 137.843 76.3221 138.608C77.0867 139.373 77.5174 140.409 77.52 141.49V157.49C77.52 157.806 77.3946 158.108 77.1715 158.331C76.9483 158.555 76.6456 158.68 76.33 158.68H73.63C73.3144 158.68 73.0117 158.555 72.7885 158.331C72.5654 158.108 72.44 157.806 72.44 157.49V143.12C72.44 142.783 72.3062 142.46 72.068 142.222C71.8299 141.984 71.5068 141.85 71.17 141.85H43.31C42.9732 141.85 42.6501 141.984 42.412 142.222C42.1738 142.46 42.04 142.783 42.04 143.12V157.5C42.04 157.816 41.9146 158.118 41.6915 158.341C41.4683 158.565 41.1656 158.69 40.85 158.69H38.15C37.8344 158.69 37.5317 158.565 37.3085 158.341C37.0854 158.118 36.96 157.816 36.96 157.5V141.5C36.9626 140.418 37.393 139.381 38.1573 138.614C38.9216 137.848 39.9578 137.415 41.04 137.41Z" stroke="white" stroke-width="2" stroke-miterlimit="10"/>
        <path id="Vector_17" d="M27.12 238.55H101.62C104.628 238.542 107.51 237.344 109.637 235.217C111.764 233.09 112.962 230.208 112.97 227.2V161.12C112.962 158.112 111.764 155.23 109.637 153.103C107.51 150.976 104.628 149.778 101.62 149.77H27.12C24.114 149.781 21.2342 150.98 19.1095 153.107C16.9849 155.233 15.7879 158.114 15.78 161.12V227.2C15.7905 230.207 16.9897 233.088 19.116 235.214C21.2422 237.34 24.123 238.539 27.13 238.55" fill="#A67EE5"/>
        <path id="Vector_18" d="M27.12 238.55H101.62C104.628 238.542 107.51 237.344 109.637 235.217C111.764 233.09 112.962 230.208 112.97 227.2V161.12C112.962 158.112 111.764 155.23 109.637 153.103C107.51 150.976 104.628 149.778 101.62 149.77H27.12C24.114 149.781 21.2342 150.98 19.1095 153.107C16.9849 155.233 15.7879 158.114 15.78 161.12V227.2C15.7905 230.205 16.9883 233.085 19.1124 235.211C21.2365 237.336 24.1148 238.537 27.12 238.55V238.55Z" stroke="white" stroke-width="2" stroke-miterlimit="10"/>
        <path id="Vector_19" d="M96 170.69H32.75" stroke="white" stroke-width="2" stroke-miterlimit="10" stroke-linecap="round"/>
        <path id="Vector_20" d="M96 194.16H32.75" stroke="white" stroke-width="2" stroke-miterlimit="10" stroke-linecap="round"/>
        <path id="Vector_21" d="M96 217.64H32.75" stroke="white" stroke-width="2" stroke-miterlimit="10" stroke-linecap="round"/>
        <path id="Vector_22" d="M9.89999 171.94H10.57V216.4H9.89999C8.96897 216.397 8.07668 216.027 7.4174 215.37C6.75813 214.712 6.38528 213.821 6.38 212.89V175.46C6.38 174.998 6.47105 174.54 6.64795 174.113C6.82485 173.686 7.08412 173.298 7.41098 172.971C7.73784 172.644 8.12588 172.385 8.55295 172.208C8.98001 172.031 9.43774 171.94 9.89999 171.94" fill="#A67EE5"/>
        <path id="Vector_23" d="M9.89999 171.94H10.57V216.4H9.89999C8.96897 216.397 8.07668 216.027 7.4174 215.37C6.75813 214.712 6.38528 213.821 6.38 212.89V175.46C6.38 174.527 6.75085 173.631 7.41098 172.971C8.07111 172.311 8.96643 171.94 9.89999 171.94V171.94Z" stroke="white" stroke-width="2" stroke-miterlimit="10"/>
      </g>
      <g id="parachute" transform="translate(-65, -190)">
        <path id="Vector_24" d="M57.24 137.12L1.64999 57.29" stroke="white" stroke-width="2" stroke-linecap="round" stroke-linejoin="round"/>
        <path id="Vector_25" d="M57.24 137.12L38.71 57.29" stroke="white" stroke-width="2" stroke-linecap="round" stroke-linejoin="round"/>
        <path id="Vector_26" d="M75.77 57.29L57.24 137.12" stroke="white" stroke-width="2" stroke-linecap="round" stroke-linejoin="round"/>
        <path id="Vector_27" d="M112.82 57.29L57.24 137.12" stroke="white" stroke-width="2" stroke-linecap="round" stroke-linejoin="round"/>
        <g id="Group_3">
          <path id="Vector_28" d="M57.24 1.7C71.9703 1.7106 86.094 7.56827 96.5081 17.9861C106.922 28.4039 112.775 42.5297 112.78 57.26C112.78 50.5 104.48 45.01 94.25 45.01C84.02 45.01 75.94 50.36 75.73 57.01C75.73 57.09 75.73 57.18 75.73 57.27C75.73 50.51 67.43 45.02 57.2 45.02C46.97 45.02 38.66 50.51 38.66 57.27C38.66 57.18 38.66 57.1 38.66 57.01C38.44 50.37 30.24 45.01 20.14 45.01C10.04 45.01 1.62 50.5 1.62 57.26C1.61868 49.9594 3.05567 42.7302 5.84886 35.9851C8.64206 29.24 12.7367 23.1113 17.899 17.949C23.0613 12.7867 29.19 8.69206 35.9351 5.89886C42.6802 3.10567 49.9094 1.66869 57.21 1.67001L57.24 1.7ZM57.21 0.0100021C42.0382 0.0364672 27.4959 6.07792 16.7715 16.8098C6.04714 27.5417 0.0158609 42.0882 0 57.26C-2.59869e-08 57.478 0.0429352 57.6939 0.126358 57.8953C0.209781 58.0967 0.332061 58.2797 0.486206 58.4338C0.640351 58.5879 0.823349 58.7102 1.02475 58.7936C1.22615 58.8771 1.44201 58.92 1.66 58.92C1.878 58.92 2.09386 58.8771 2.29526 58.7936C2.49666 58.7102 2.67966 58.5879 2.8338 58.4338C2.98795 58.2797 3.11021 58.0967 3.19363 57.8953C3.27706 57.6939 3.31999 57.478 3.31999 57.26C3.31999 51.42 10.89 46.67 20.19 46.67C29.3 46.67 36.87 51.33 37.05 57.05V57.26C37.05 57.7003 37.2249 58.1225 37.5362 58.4338C37.8475 58.7451 38.2697 58.92 38.71 58.92C39.1503 58.92 39.5725 58.7451 39.8838 58.4338C40.1951 58.1225 40.37 57.7003 40.37 57.26C40.37 51.42 47.94 46.67 57.24 46.67C66.54 46.67 74.11 51.42 74.11 57.26C74.11 57.7003 74.2849 58.1225 74.5962 58.4338C74.9075 58.7451 75.3297 58.92 75.77 58.92C76.2103 58.92 76.6325 58.7451 76.9438 58.4338C77.2551 58.1225 77.43 57.7003 77.43 57.26V57.05C77.61 51.32 85.17 46.66 94.29 46.66C103.59 46.66 111.16 51.41 111.16 57.25C111.16 57.6903 111.335 58.1125 111.646 58.4238C111.958 58.7351 112.38 58.91 112.82 58.91C113.26 58.91 113.682 58.7351 113.994 58.4238C114.305 58.1125 114.48 57.6903 114.48 57.25C114.467 42.0739 108.434 27.5228 97.7043 16.7898C86.975 6.0568 72.4261 0.018534 57.25 0" fill="white"/>
          <path id="Vector_29" d="M57.24 1.69998C67.16 1.69998 75.24 22.6 75.78 57.03C75.99 50.38 84.19 45.03 94.3 45.03C104.41 45.03 112.78 50.53 112.78 57.26C112.78 42.5166 106.923 28.3771 96.4981 17.9519C86.0729 7.52676 71.9334 1.66998 57.19 1.66998" fill="#E81A5A"/>
          <path id="Vector_30" d="M57.23 1.7C42.4927 1.7 28.3588 7.55299 17.9361 17.9719C7.51337 28.3909 1.6553 42.5227 1.64999 57.26C1.64999 50.5 9.95 45.01 20.17 45.01C30.39 45.01 38.47 50.36 38.69 57.01C39.21 22.58 47.3 1.69 57.22 1.69" fill="#FE6183"/>
          <path id="Vector_31" d="M57.24 1.69998C47.31 1.69998 39.24 22.6 38.7 57.02C38.7 57.11 38.7 57.19 38.7 57.28C38.7 50.52 47 45.03 57.23 45.03C67.46 45.03 75.78 50.53 75.78 57.26C75.78 57.17 75.78 57.09 75.78 57C75.27 22.57 67.18 1.66998 57.26 1.66998" fill="#F7396B"/>
        </g>
      </g>
      <animateMotion
        id="fly_prize_motion"
        dur="1.5s"
        begin="first_cloud_appear.end + 0.5s"
        fill="freeze">
        <mpath href="#suitcase_path"/>
      </animateMotion>
      <animateTransform
        begin="fly_prize_motion.begin"
        from="0"
        to="1"
        dur="1.5s"
        attributeName="transform"
        fill="freeze"
        additive="sum"
        type="scale"
      />
      <animateTransform
        begin="fly_prize_motion.begin"
        dur="1.5s"
        values="30; -30; 20; 18.29; -6.48; 0"
        keyTimes="0; 0.3157; 0.6053; 0.7371; 0.8629; 1"
        keySplines="0.33, 0, 0.67, 1; 0.33, 0, 0.67, 1; 0.33, 0, 0.67, 1; 0.33, 0, 0.67, 1; 0.17, 0, 0.83, 1"
        fill="freeze"
        additive="sum"
        calcMode="spline"
        type="rotate"
        attributeName="transform"
      />
      <animate
        attributeType="CSS"
        attributeName="opacity"
        from="0"
        to="1"
        dur="0.01s"
        begin="fly_prize_motion.begin"
        calcMode="discrete"
        fill="freeze"
      />
      <deff>
        <path id="suitcase_path" d="M179,111c24.19-9.24,29.8-15.84,29.42-20.44C207.18,75.43,138.73,51.78,96,84c-2.93,2.21-31.66,24.52-29,54,3.54,39.18,59.83,61.15,75.7,67.35,53.65,20.94,94.43,8.79,101.78,27.18,2.89,7.25.78,19.69-21.48,42.47" fill="none" stroke="#000" stroke-miterlimit="10"/>
      </deff>
    </g>
    <g id="clouds">
      <g id="cloud_small" style="opacity:0">
        <path id="Vector" d="M65.43 77.72H105.21" stroke="white" stroke-width="2" stroke-miterlimit="10" stroke-linecap="round"/>
        <g id="Group">
          <path id="Vector_2" d="M85.22 67.45H57.86C57.86 64.1613 56.5536 61.0073 54.2281 58.6819C51.9027 56.3564 48.7487 55.05 45.46 55.05C42.1713 55.05 39.0173 56.3564 36.6919 58.6819C34.3664 61.0073 33.06 64.1613 33.06 67.45H15.13" stroke="white" stroke-width="2" stroke-miterlimit="10" stroke-linecap="round"/>
          <path id="Vector_3" d="M93.48 67.45H115.68" stroke="white" stroke-width="2" stroke-miterlimit="10" stroke-linecap="round"/>
        </g>
        <animate id="first_cloud_appear" attributeType="CSS" attributeName="opacity" from="0" to="1" dur="0.3s" begin="1s" fill="freeze"/>
        <animateMotion id="first_cloud_slide" from="50, 0" to="0, 0" dur="0.3s" begin="first_cloud_appear.begin" fill="freeze"/>
      </g>
      <g id="cloud_big" style="opacity:0">
        <path id="Vector_4" d="M272.13 145.27H311.9" stroke="white" stroke-width="2" stroke-miterlimit="10" stroke-linecap="round"/>
        <path id="Vector_5" d="M300.17 135H322.37" stroke="white" stroke-width="2" stroke-miterlimit="10" stroke-linecap="round"/>
        <g id="Group_2">
          <path id="Vector_6" d="M235.77 119H216.32C216.198 110.896 213.305 103.078 208.124 96.8464C202.942 90.6144 195.784 86.3436 187.838 84.744C179.893 83.1445 171.64 84.3125 164.45 88.054C157.261 91.7954 151.569 97.8849 148.32 105.31C144.377 103.122 139.939 101.982 135.43 102C130.068 102.018 124.835 103.649 120.412 106.681C115.989 109.713 112.581 114.005 110.63 119H95.48C92.6952 119 90.0245 120.106 88.0554 122.075C86.0862 124.045 84.98 126.715 84.98 129.5C84.98 132.285 86.0862 134.956 88.0554 136.925C90.0245 138.894 92.6952 140 95.48 140H235.78C238.565 140 241.235 138.894 243.205 136.925C245.174 134.956 246.28 132.285 246.28 129.5C246.28 126.715 245.174 124.045 243.205 122.075C241.235 120.106 238.565 119 235.78 119" fill="white"/>
        </g>
        <animate
          id="second_cloud_appear"
          attributeType="CSS"
          attributeName="opacity"
          from="0"
          to="1"
          dur="0.3s"
          begin="first_cloud_appear.begin + 0.1s"
          fill="freeze"
        />
        <animateMotion
          id="second_cloud_slide"
          from="50, 0"
          to="0, 0"
          calcMode="spline"
          keySplines="0.2 0.65 0.2 1"
          dur="0.3s"
          begin="second_cloud_appear.begin"
          fill="freeze"
        />
      </g>
      <animateMotion
        id="clouds_slide"
        from="0, 0"
        to="0, -100"
        calcMode="spline"
        keySplines="0.2 0.65 0.2 1"
        dur="0.5s"
        begin="fly_prize_motion.begin + 0.4s"
        fill="freeze"
      />
      <animate
        id="clouds_disappear"
        attributeType="CSS"
        attributeName="opacity"
        from="1"
        to="0"
        dur="0.3s"
        begin="clouds_slide.begin + 0.1s"
        fill="freeze"
      />
    </g>
    <g id="leave_small" style="transform-origin: left bottom;">
      <path id="Vector_32" d="M322.92 284.4C323.203 284.676 323.404 285.024 323.501 285.407C323.598 285.79 323.588 286.193 323.47 286.57C322.41 290 318.89 299.42 311.37 302.91C306.24 305.29 303.04 300.21 300.45 303.68C297.86 307.15 302.55 308.68 307.37 307.99C307.786 307.922 308.213 307.977 308.599 308.149C308.984 308.32 309.311 308.601 309.538 308.956C309.766 309.311 309.885 309.726 309.88 310.147C309.874 310.569 309.746 310.98 309.51 311.33C308.252 313.319 306.524 314.968 304.479 316.131C302.433 317.294 300.132 317.936 297.78 318C286.94 318.27 285.23 306.42 283.21 307.81C280.49 309.7 284.48 314.36 287.6 317.38C287.899 317.667 288.109 318.034 288.206 318.437C288.302 318.84 288.28 319.262 288.143 319.653C288.006 320.044 287.76 320.388 287.433 320.642C287.106 320.897 286.713 321.053 286.3 321.09C277.54 321.93 266.58 317.58 266.5 306.09C266.42 293.15 262.25 294.29 261.39 287.74C260.48 280.86 265.27 272.86 275.13 271.05C275.527 270.978 275.935 271.018 276.31 271.166C276.685 271.314 277.011 271.563 277.252 271.887C277.492 272.211 277.637 272.595 277.67 272.997C277.704 273.398 277.624 273.801 277.44 274.16C275.03 278.89 271.44 286.76 274.62 286.72C278.08 286.72 273.04 264.14 303.05 271.46C303.412 271.549 303.745 271.731 304.016 271.987C304.287 272.243 304.487 272.565 304.597 272.921C304.707 273.278 304.722 273.657 304.642 274.021C304.562 274.385 304.389 274.722 304.14 275L304.04 275.11C303.713 275.473 303.519 275.935 303.489 276.422C303.459 276.91 303.595 277.392 303.874 277.793C304.154 278.193 304.56 278.486 305.028 278.626C305.496 278.765 305.997 278.742 306.45 278.56C310.11 277.04 315.61 277.29 322.92 284.4" fill="#FE6183"/>
      <path id="Vector_33" d="M245.13 328.88C245.13 328.88 248.61 298.77 266.83 298.77" stroke="#FE6183" stroke-width="2" stroke-miterlimit="10"/>
      <animateTransform
        attributeName="transform"
        type="skewX"
        values="0; -7; 5; -3; 1.5; 0;"
        dur="2s"
        keyTimes="0; 0.2; 0.4; 0.6; 0.8; 1"
        keySplines="0.35, 0.06, 0.44, 0.91; 0.35, 0.06, 0.44, 0.91; 0.35, 0.06, 0.44, 0.91; 0.35, 0.06, 0.44, 0.91; 0.35, 0.06, 0.44, 0.91"
        calcMode="spline"
        repeatCount="indefinite"
        additive="sum"
      />
    </g>
    <g id="ground">
      <path id="Vector_34" d="M41.13 329H319.13" stroke="white" stroke-width="2"/>
    </g>
  </g>
</svg>
